# Wavefront OBJ file automatically generated by Tiled2Unity

# Vertices (Count = 256)
v 0 -1 0
v -1 -1 0
v -1 0 0
v 0 0 0
v -2 -1 0
v -2 0 0
v -3 -1 0
v -3 0 0
v -4 -1 0
v -4 0 0
v -5 -1 0
v -5 0 0
v -6 -1 0
v -6 0 0
v -7 -1 0
v -7 0 0
v -8 -1 0
v -8 0 0
v -9 -1 0
v -9 0 0
v -10 -1 0
v -10 0 0
v -11 -1 0
v -11 0 0
v -12 -1 0
v -12 0 0
v -13 -1 0
v -13 0 0
v -14 -1 0
v -14 0 0
v -15 -1 0
v -15 0 0
v 0 -2 0
v -1 -2 0
v -2 -2 0
v -3 -2 0
v -4 -2 0
v -5 -2 0
v -6 -2 0
v -7 -2 0
v -8 -2 0
v -9 -2 0
v -10 -2 0
v -11 -2 0
v -12 -2 0
v -13 -2 0
v -14 -2 0
v -15 -2 0
v 0 -3 0
v -1 -3 0
v -2 -3 0
v -3 -3 0
v -4 -3 0
v -5 -3 0
v -6 -3 0
v -7 -3 0
v -8 -3 0
v -9 -3 0
v -10 -3 0
v -11 -3 0
v -12 -3 0
v -13 -3 0
v -14 -3 0
v -15 -3 0
v 0 -4 0
v -1 -4 0
v -2 -4 0
v -3 -4 0
v -4 -4 0
v -5 -4 0
v -6 -4 0
v -7 -4 0
v -8 -4 0
v -9 -4 0
v -10 -4 0
v -11 -4 0
v -12 -4 0
v -13 -4 0
v -14 -4 0
v -15 -4 0
v 0 -5 0
v -1 -5 0
v -2 -5 0
v -3 -5 0
v -4 -5 0
v -5 -5 0
v -6 -5 0
v -7 -5 0
v -8 -5 0
v -9 -5 0
v -10 -5 0
v -11 -5 0
v -12 -5 0
v -13 -5 0
v -14 -5 0
v -15 -5 0
v 0 -6 0
v -1 -6 0
v -2 -6 0
v -3 -6 0
v -4 -6 0
v -5 -6 0
v -6 -6 0
v -7 -6 0
v -8 -6 0
v -9 -6 0
v -10 -6 0
v -11 -6 0
v -12 -6 0
v -13 -6 0
v -14 -6 0
v -15 -6 0
v 0 -7 0
v -1 -7 0
v -2 -7 0
v -3 -7 0
v -4 -7 0
v -5 -7 0
v -6 -7 0
v -7 -7 0
v -8 -7 0
v -9 -7 0
v -10 -7 0
v -11 -7 0
v -12 -7 0
v -13 -7 0
v -14 -7 0
v -15 -7 0
v 0 -8 0
v -1 -8 0
v -2 -8 0
v -3 -8 0
v -4 -8 0
v -5 -8 0
v -6 -8 0
v -7 -8 0
v -8 -8 0
v -9 -8 0
v -10 -8 0
v -11 -8 0
v -12 -8 0
v -13 -8 0
v -14 -8 0
v -15 -8 0
v 0 -9 0
v -1 -9 0
v -2 -9 0
v -3 -9 0
v -4 -9 0
v -5 -9 0
v -6 -9 0
v -7 -9 0
v -8 -9 0
v -9 -9 0
v -10 -9 0
v -11 -9 0
v -12 -9 0
v -13 -9 0
v -14 -9 0
v -15 -9 0
v 0 -10 0
v -1 -10 0
v -2 -10 0
v -3 -10 0
v -4 -10 0
v -5 -10 0
v -6 -10 0
v -7 -10 0
v -8 -10 0
v -9 -10 0
v -10 -10 0
v -11 -10 0
v -12 -10 0
v -13 -10 0
v -14 -10 0
v -15 -10 0
v 0 -11 0
v -1 -11 0
v -2 -11 0
v -3 -11 0
v -4 -11 0
v -5 -11 0
v -6 -11 0
v -7 -11 0
v -8 -11 0
v -9 -11 0
v -10 -11 0
v -11 -11 0
v -12 -11 0
v -13 -11 0
v -14 -11 0
v -15 -11 0
v 0 -12 0
v -1 -12 0
v -2 -12 0
v -3 -12 0
v -4 -12 0
v -5 -12 0
v -6 -12 0
v -7 -12 0
v -8 -12 0
v -9 -12 0
v -10 -12 0
v -11 -12 0
v -12 -12 0
v -13 -12 0
v -14 -12 0
v -15 -12 0
v 0 -13 0
v -1 -13 0
v -2 -13 0
v -3 -13 0
v -4 -13 0
v -5 -13 0
v -6 -13 0
v -7 -13 0
v -8 -13 0
v -9 -13 0
v -10 -13 0
v -11 -13 0
v -12 -13 0
v -13 -13 0
v -14 -13 0
v -15 -13 0
v 0 -14 0
v -1 -14 0
v -2 -14 0
v -3 -14 0
v -4 -14 0
v -5 -14 0
v -6 -14 0
v -7 -14 0
v -8 -14 0
v -9 -14 0
v -10 -14 0
v -11 -14 0
v -12 -14 0
v -13 -14 0
v -14 -14 0
v -15 -14 0
v 0 -15 0
v -1 -15 0
v -2 -15 0
v -3 -15 0
v -4 -15 0
v -5 -15 0
v -6 -15 0
v -7 -15 0
v -8 -15 0
v -9 -15 0
v -10 -15 0
v -11 -15 0
v -12 -15 0
v -13 -15 0
v -14 -15 0
v -15 -15 0

# Texture cooridinates (Count = 240)
vt 0.1001221 0.960122
vt 0.1248779 0.960122
vt 0.1248779 0.9998779
vt 0.1001221 0.9998779
vt 0.05012207 0.8801221
vt 0.07487793 0.8801221
vt 0.07487793 0.9198779
vt 0.05012207 0.9198779
vt 0.1251221 0.960122
vt 0.1498779 0.960122
vt 0.1498779 0.9998779
vt 0.1251221 0.9998779
vt 0.07512207 0.9201221
vt 0.09987793 0.9201221
vt 0.09987793 0.9598779
vt 0.07512207 0.9598779
vt 0.0001220703 0.8401221
vt 0.02487793 0.8401221
vt 0.02487793 0.8798779
vt 0.0001220703 0.8798779
vt 0.02512207 0.9201221
vt 0.04987793 0.9201221
vt 0.04987793 0.9598779
vt 0.02512207 0.9598779
vt 0.0001220703 0.7601221
vt 0.02487793 0.7601221
vt 0.02487793 0.7998779
vt 0.0001220703 0.7998779
vt 0.0001220703 0.9201221
vt 0.02487793 0.9201221
vt 0.02487793 0.9598779
vt 0.0001220703 0.9598779
vt 0.0001220703 0.6801221
vt 0.02487793 0.6801221
vt 0.02487793 0.719878
vt 0.0001220703 0.719878
vt 0.02512207 0.6801221
vt 0.04987793 0.6801221
vt 0.04987793 0.719878
vt 0.02512207 0.719878
vt 0.05012207 0.6801221
vt 0.07487793 0.6801221
vt 0.07487793 0.719878
vt 0.05012207 0.719878
vt 0.0001220703 0.6401221
vt 0.02487793 0.6401221
vt 0.02487793 0.6798779
vt 0.0001220703 0.6798779
vt 0.02512207 0.6401221
vt 0.04987793 0.6401221
vt 0.04987793 0.6798779
vt 0.02512207 0.6798779
vt 0.05012207 0.6401221
vt 0.07487793 0.6401221
vt 0.07487793 0.6798779
vt 0.05012207 0.6798779
vt 0.0001220703 0.6001221
vt 0.02487793 0.6001221
vt 0.02487793 0.6398779
vt 0.0001220703 0.6398779
vt 0.02512207 0.6001221
vt 0.04987793 0.6001221
vt 0.04987793 0.6398779
vt 0.02512207 0.6398779
vt 0.05012207 0.6001221
vt 0.07487793 0.6001221
vt 0.07487793 0.6398779
vt 0.05012207 0.6398779
vt 0.1001221 0.9201221
vt 0.1248779 0.9201221
vt 0.1248779 0.9598779
vt 0.1001221 0.9598779
vt 0.05012207 0.960122
vt 0.07487793 0.960122
vt 0.07487793 0.9998779
vt 0.05012207 0.9998779
vt 0.07512207 0.960122
vt 0.09987793 0.960122
vt 0.09987793 0.9998779
vt 0.07512207 0.9998779
vt 0.02512207 0.960122
vt 0.04987793 0.960122
vt 0.04987793 0.9998779
vt 0.02512207 0.9998779
vt 0.1251221 0.9201221
vt 0.1498779 0.9201221
vt 0.1498779 0.9598779
vt 0.1251221 0.9598779
vt 0.1001221 0.3601221
vt 0.1248779 0.3601221
vt 0.1248779 0.3998779
vt 0.1001221 0.3998779
vt 0.1501221 0.6001221
vt 0.1748779 0.6001221
vt 0.1748779 0.6398779
vt 0.1501221 0.6398779
vt 0.2001221 0.6001221
vt 0.2248779 0.6001221
vt 0.2248779 0.6398779
vt 0.2001221 0.6398779
vt 0.1001221 0.5601221
vt 0.1248779 0.5601221
vt 0.1248779 0.599878
vt 0.1001221 0.599878
vt 0.3001221 0.5601221
vt 0.3248779 0.5601221
vt 0.3248779 0.599878
vt 0.3001221 0.599878
vt 0.3251221 0.5601221
vt 0.3498779 0.5601221
vt 0.3498779 0.599878
vt 0.3251221 0.599878
vt 0.1001221 0.3201221
vt 0.1248779 0.3201221
vt 0.1248779 0.3598779
vt 0.1001221 0.3598779
vt 0.1501221 0.5601221
vt 0.1748779 0.5601221
vt 0.1748779 0.599878
vt 0.1501221 0.599878
vt 0.2001221 0.5601221
vt 0.2248779 0.5601221
vt 0.2248779 0.599878
vt 0.2001221 0.599878
vt 0.1001221 0.5201221
vt 0.1248779 0.5201221
vt 0.1248779 0.5598779
vt 0.1001221 0.5598779
vt 0.3001221 0.5201221
vt 0.3248779 0.5201221
vt 0.3248779 0.5598779
vt 0.3001221 0.5598779
vt 0.3251221 0.5201221
vt 0.3498779 0.5201221
vt 0.3498779 0.5598779
vt 0.3251221 0.5598779
vt 0.1501221 0.5201221
vt 0.1748779 0.5201221
vt 0.1748779 0.5598779
vt 0.1501221 0.5598779
vt 0.2001221 0.5201221
vt 0.2248779 0.5201221
vt 0.2248779 0.5598779
vt 0.2001221 0.5598779
vt 0.3001221 0.4801221
vt 0.3248779 0.4801221
vt 0.3248779 0.5198779
vt 0.3001221 0.5198779
vt 0.3251221 0.4801221
vt 0.3498779 0.4801221
vt 0.3498779 0.5198779
vt 0.3251221 0.5198779
vt 0.4001221 0.8001221
vt 0.4248779 0.8001221
vt 0.4248779 0.839878
vt 0.4001221 0.839878
vt 0.2501221 0.9201221
vt 0.2748779 0.9201221
vt 0.2748779 0.9598779
vt 0.2501221 0.9598779
vt 0.3001221 0.9201221
vt 0.3248779 0.9201221
vt 0.3248779 0.9598779
vt 0.3001221 0.9598779
vt 0.4501221 0.8001221
vt 0.4748779 0.8001221
vt 0.4748779 0.839878
vt 0.4501221 0.839878
vt 0.4001221 0.7601221
vt 0.4248779 0.7601221
vt 0.4248779 0.7998779
vt 0.4001221 0.7998779
vt 0.2501221 0.8801221
vt 0.2748779 0.8801221
vt 0.2748779 0.9198779
vt 0.2501221 0.9198779
vt 0.3001221 0.8801221
vt 0.3248779 0.8801221
vt 0.3248779 0.9198779
vt 0.3001221 0.9198779
vt 0.4501221 0.7601221
vt 0.4748779 0.7601221
vt 0.4748779 0.7998779
vt 0.4501221 0.7998779
vt 0.4001221 0.7201221
vt 0.4248779 0.7201221
vt 0.4248779 0.7598779
vt 0.4001221 0.7598779
vt 0.2501221 0.8401221
vt 0.2748779 0.8401221
vt 0.2748779 0.8798779
vt 0.2501221 0.8798779
vt 0.3001221 0.8401221
vt 0.3248779 0.8401221
vt 0.3248779 0.8798779
vt 0.3001221 0.8798779
vt 0.4501221 0.7201221
vt 0.4748779 0.7201221
vt 0.4748779 0.7598779
vt 0.4501221 0.7598779
vt 0.5001221 0.9201221
vt 0.5248779 0.9201221
vt 0.5248779 0.9598779
vt 0.5001221 0.9598779
vt 0.525122 0.9201221
vt 0.5498779 0.9201221
vt 0.5498779 0.9598779
vt 0.525122 0.9598779
vt 0.5001221 0.8801221
vt 0.5248779 0.8801221
vt 0.5248779 0.9198779
vt 0.5001221 0.9198779
vt 0.525122 0.8801221
vt 0.5498779 0.8801221
vt 0.5498779 0.9198779
vt 0.525122 0.9198779
vt 0.5001221 0.8401221
vt 0.5248779 0.8401221
vt 0.5248779 0.8798779
vt 0.5001221 0.8798779
vt 0.525122 0.8401221
vt 0.5498779 0.8401221
vt 0.5498779 0.8798779
vt 0.525122 0.8798779
vt 0.0001220703 0.7201221
vt 0.02487793 0.7201221
vt 0.02487793 0.7598779
vt 0.0001220703 0.7598779
vt 0.2001221 0.4801221
vt 0.2248779 0.4801221
vt 0.2248779 0.5198779
vt 0.2001221 0.5198779
vt 0.2001221 0.4401221
vt 0.2248779 0.4401221
vt 0.2248779 0.4798779
vt 0.2001221 0.4798779
vt 0.2251221 0.5201221
vt 0.2498779 0.5201221
vt 0.2498779 0.5598779
vt 0.2251221 0.5598779

# Normal
vn 0 0 -1

# Groups (Count = 4)

g mesh_0001
f 1/1/1 2/2/1 3/3/1 4/4/1
f 2/5/1 5/6/1 6/7/1 3/8/1
f 5/5/1 7/6/1 8/7/1 6/8/1
f 7/5/1 9/6/1 10/7/1 8/8/1
f 9/5/1 11/6/1 12/7/1 10/8/1
f 11/5/1 13/6/1 14/7/1 12/8/1
f 13/5/1 15/6/1 16/7/1 14/8/1
f 15/5/1 17/6/1 18/7/1 16/8/1
f 17/5/1 19/6/1 20/7/1 18/8/1
f 19/5/1 21/6/1 22/7/1 20/8/1
f 21/5/1 23/6/1 24/7/1 22/8/1
f 23/5/1 25/6/1 26/7/1 24/8/1
f 25/5/1 27/6/1 28/7/1 26/8/1
f 27/5/1 29/6/1 30/7/1 28/8/1
f 29/9/1 31/10/1 32/11/1 30/12/1
f 33/13/1 34/14/1 2/15/1 1/16/1
f 34/17/1 35/18/1 5/19/1 2/20/1
f 35/17/1 36/18/1 7/19/1 5/20/1
f 36/17/1 37/18/1 9/19/1 7/20/1
f 37/17/1 38/18/1 11/19/1 9/20/1
f 38/17/1 39/18/1 13/19/1 11/20/1
f 39/17/1 40/18/1 15/19/1 13/20/1
f 40/17/1 41/18/1 17/19/1 15/20/1
f 41/17/1 42/18/1 19/19/1 17/20/1
f 42/17/1 43/18/1 21/19/1 19/20/1
f 43/17/1 44/18/1 23/19/1 21/20/1
f 44/17/1 45/18/1 25/19/1 23/20/1
f 45/17/1 46/18/1 27/19/1 25/20/1
f 46/17/1 47/18/1 29/19/1 27/20/1
f 47/21/1 48/22/1 31/23/1 29/24/1
f 49/13/1 50/14/1 34/15/1 33/16/1
f 50/25/1 51/26/1 35/27/1 34/28/1
f 51/25/1 52/26/1 36/27/1 35/28/1
f 52/25/1 53/26/1 37/27/1 36/28/1
f 53/25/1 54/26/1 38/27/1 37/28/1
f 54/25/1 55/26/1 39/27/1 38/28/1
f 55/25/1 56/26/1 40/27/1 39/28/1
f 56/25/1 57/26/1 41/27/1 40/28/1
f 57/25/1 58/26/1 42/27/1 41/28/1
f 58/25/1 59/26/1 43/27/1 42/28/1
f 59/25/1 60/26/1 44/27/1 43/28/1
f 60/25/1 61/26/1 45/27/1 44/28/1
f 61/25/1 62/26/1 46/27/1 45/28/1
f 62/25/1 63/26/1 47/27/1 46/28/1
f 63/21/1 64/22/1 48/23/1 47/24/1
f 65/13/1 66/14/1 50/15/1 49/16/1
f 66/29/1 67/30/1 51/31/1 50/32/1
f 67/29/1 68/30/1 52/31/1 51/32/1
f 68/29/1 69/30/1 53/31/1 52/32/1
f 69/29/1 70/30/1 54/31/1 53/32/1
f 70/29/1 71/30/1 55/31/1 54/32/1
f 71/29/1 72/30/1 56/31/1 55/32/1
f 72/29/1 73/30/1 57/31/1 56/32/1
f 73/29/1 74/30/1 58/31/1 57/32/1
f 74/29/1 75/30/1 59/31/1 58/32/1
f 75/29/1 76/30/1 60/31/1 59/32/1
f 76/29/1 77/30/1 61/31/1 60/32/1
f 77/29/1 78/30/1 62/31/1 61/32/1
f 78/29/1 79/30/1 63/31/1 62/32/1
f 79/21/1 80/22/1 64/23/1 63/24/1
f 81/13/1 82/14/1 66/15/1 65/16/1
f 82/29/1 83/30/1 67/31/1 66/32/1
f 83/29/1 84/30/1 68/31/1 67/32/1
f 84/29/1 85/30/1 69/31/1 68/32/1
f 85/29/1 86/30/1 70/31/1 69/32/1
f 86/29/1 87/30/1 71/31/1 70/32/1
f 87/29/1 88/30/1 72/31/1 71/32/1
f 88/29/1 89/30/1 73/31/1 72/32/1
f 89/29/1 90/30/1 74/31/1 73/32/1
f 90/29/1 91/30/1 75/31/1 74/32/1
f 91/29/1 92/30/1 76/31/1 75/32/1
f 92/29/1 93/30/1 77/31/1 76/32/1
f 93/29/1 94/30/1 78/31/1 77/32/1
f 94/29/1 95/30/1 79/31/1 78/32/1
f 95/21/1 96/22/1 80/23/1 79/24/1
f 97/13/1 98/14/1 82/15/1 81/16/1
f 98/29/1 99/30/1 83/31/1 82/32/1
f 99/29/1 100/30/1 84/31/1 83/32/1
f 100/29/1 101/30/1 85/31/1 84/32/1
f 101/29/1 102/30/1 86/31/1 85/32/1
f 102/33/1 103/34/1 87/35/1 86/36/1
f 103/37/1 104/38/1 88/39/1 87/40/1
f 104/41/1 105/42/1 89/43/1 88/44/1
f 105/29/1 106/30/1 90/31/1 89/32/1
f 106/29/1 107/30/1 91/31/1 90/32/1
f 107/29/1 108/30/1 92/31/1 91/32/1
f 108/29/1 109/30/1 93/31/1 92/32/1
f 109/29/1 110/30/1 94/31/1 93/32/1
f 110/29/1 111/30/1 95/31/1 94/32/1
f 111/21/1 112/22/1 96/23/1 95/24/1
f 113/13/1 114/14/1 98/15/1 97/16/1
f 114/29/1 115/30/1 99/31/1 98/32/1
f 115/29/1 116/30/1 100/31/1 99/32/1
f 116/29/1 117/30/1 101/31/1 100/32/1
f 117/29/1 118/30/1 102/31/1 101/32/1
f 118/45/1 119/46/1 103/47/1 102/48/1
f 119/49/1 120/50/1 104/51/1 103/52/1
f 120/53/1 121/54/1 105/55/1 104/56/1
f 121/29/1 122/30/1 106/31/1 105/32/1
f 122/29/1 123/30/1 107/31/1 106/32/1
f 123/29/1 124/30/1 108/31/1 107/32/1
f 124/29/1 125/30/1 109/31/1 108/32/1
f 125/29/1 126/30/1 110/31/1 109/32/1
f 126/29/1 127/30/1 111/31/1 110/32/1
f 127/21/1 128/22/1 112/23/1 111/24/1
f 129/13/1 130/14/1 114/15/1 113/16/1
f 130/29/1 131/30/1 115/31/1 114/32/1
f 131/29/1 132/30/1 116/31/1 115/32/1
f 132/29/1 133/30/1 117/31/1 116/32/1
f 133/29/1 134/30/1 118/31/1 117/32/1
f 134/57/1 135/58/1 119/59/1 118/60/1
f 135/61/1 136/62/1 120/63/1 119/64/1
f 136/65/1 137/66/1 121/67/1 120/68/1
f 137/29/1 138/30/1 122/31/1 121/32/1
f 138/29/1 139/30/1 123/31/1 122/32/1
f 139/29/1 140/30/1 124/31/1 123/32/1
f 140/29/1 141/30/1 125/31/1 124/32/1
f 141/29/1 142/30/1 126/31/1 125/32/1
f 142/29/1 143/30/1 127/31/1 126/32/1
f 143/21/1 144/22/1 128/23/1 127/24/1
f 145/13/1 146/14/1 130/15/1 129/16/1
f 146/29/1 147/30/1 131/31/1 130/32/1
f 147/29/1 148/30/1 132/31/1 131/32/1
f 148/29/1 149/30/1 133/31/1 132/32/1
f 149/29/1 150/30/1 134/31/1 133/32/1
f 150/29/1 151/30/1 135/31/1 134/32/1
f 151/29/1 152/30/1 136/31/1 135/32/1
f 152/29/1 153/30/1 137/31/1 136/32/1
f 153/29/1 154/30/1 138/31/1 137/32/1
f 154/29/1 155/30/1 139/31/1 138/32/1
f 155/29/1 156/30/1 140/31/1 139/32/1
f 156/29/1 157/30/1 141/31/1 140/32/1
f 157/29/1 158/30/1 142/31/1 141/32/1
f 158/29/1 159/30/1 143/31/1 142/32/1
f 159/21/1 160/22/1 144/23/1 143/24/1
f 161/13/1 162/14/1 146/15/1 145/16/1
f 162/29/1 163/30/1 147/31/1 146/32/1
f 163/29/1 164/30/1 148/31/1 147/32/1
f 164/29/1 165/30/1 149/31/1 148/32/1
f 165/29/1 166/30/1 150/31/1 149/32/1
f 166/29/1 167/30/1 151/31/1 150/32/1
f 167/29/1 168/30/1 152/31/1 151/32/1
f 168/29/1 169/30/1 153/31/1 152/32/1
f 169/29/1 170/30/1 154/31/1 153/32/1
f 170/29/1 171/30/1 155/31/1 154/32/1
f 171/29/1 172/30/1 156/31/1 155/32/1
f 172/29/1 173/30/1 157/31/1 156/32/1
f 173/29/1 174/30/1 158/31/1 157/32/1
f 174/29/1 175/30/1 159/31/1 158/32/1
f 175/21/1 176/22/1 160/23/1 159/24/1
f 177/13/1 178/14/1 162/15/1 161/16/1
f 178/29/1 179/30/1 163/31/1 162/32/1
f 179/29/1 180/30/1 164/31/1 163/32/1
f 180/29/1 181/30/1 165/31/1 164/32/1
f 181/29/1 182/30/1 166/31/1 165/32/1
f 182/29/1 183/30/1 167/31/1 166/32/1
f 183/29/1 184/30/1 168/31/1 167/32/1
f 184/29/1 185/30/1 169/31/1 168/32/1
f 185/29/1 186/30/1 170/31/1 169/32/1
f 186/29/1 187/30/1 171/31/1 170/32/1
f 187/29/1 188/30/1 172/31/1 171/32/1
f 188/29/1 189/30/1 173/31/1 172/32/1
f 189/29/1 190/30/1 174/31/1 173/32/1
f 190/29/1 191/30/1 175/31/1 174/32/1
f 191/21/1 192/22/1 176/23/1 175/24/1
f 193/13/1 194/14/1 178/15/1 177/16/1
f 194/29/1 195/30/1 179/31/1 178/32/1
f 195/29/1 196/30/1 180/31/1 179/32/1
f 196/29/1 197/30/1 181/31/1 180/32/1
f 197/29/1 198/30/1 182/31/1 181/32/1
f 198/29/1 199/30/1 183/31/1 182/32/1
f 199/29/1 200/30/1 184/31/1 183/32/1
f 200/29/1 201/30/1 185/31/1 184/32/1
f 201/29/1 202/30/1 186/31/1 185/32/1
f 202/29/1 203/30/1 187/31/1 186/32/1
f 203/29/1 204/30/1 188/31/1 187/32/1
f 204/29/1 205/30/1 189/31/1 188/32/1
f 205/29/1 206/30/1 190/31/1 189/32/1
f 206/29/1 207/30/1 191/31/1 190/32/1
f 207/21/1 208/22/1 192/23/1 191/24/1
f 209/13/1 210/14/1 194/15/1 193/16/1
f 210/29/1 211/30/1 195/31/1 194/32/1
f 211/29/1 212/30/1 196/31/1 195/32/1
f 212/29/1 213/30/1 197/31/1 196/32/1
f 213/29/1 214/30/1 198/31/1 197/32/1
f 214/29/1 215/30/1 199/31/1 198/32/1
f 215/29/1 216/30/1 200/31/1 199/32/1
f 216/29/1 217/30/1 201/31/1 200/32/1
f 217/29/1 218/30/1 202/31/1 201/32/1
f 218/29/1 219/30/1 203/31/1 202/32/1
f 219/29/1 220/30/1 204/31/1 203/32/1
f 220/29/1 221/30/1 205/31/1 204/32/1
f 221/29/1 222/30/1 206/31/1 205/32/1
f 222/29/1 223/30/1 207/31/1 206/32/1
f 223/21/1 224/22/1 208/23/1 207/24/1
f 225/13/1 226/14/1 210/15/1 209/16/1
f 226/29/1 227/30/1 211/31/1 210/32/1
f 227/29/1 228/30/1 212/31/1 211/32/1
f 228/29/1 229/30/1 213/31/1 212/32/1
f 229/29/1 230/30/1 214/31/1 213/32/1
f 230/29/1 231/30/1 215/31/1 214/32/1
f 231/29/1 232/30/1 216/31/1 215/32/1
f 232/29/1 233/30/1 217/31/1 216/32/1
f 233/29/1 234/30/1 218/31/1 217/32/1
f 234/29/1 235/30/1 219/31/1 218/32/1
f 235/29/1 236/30/1 220/31/1 219/32/1
f 236/29/1 237/30/1 221/31/1 220/32/1
f 237/29/1 238/30/1 222/31/1 221/32/1
f 238/29/1 239/30/1 223/31/1 222/32/1
f 239/21/1 240/22/1 224/23/1 223/24/1
f 241/69/1 242/70/1 226/71/1 225/72/1
f 242/73/1 243/74/1 227/75/1 226/76/1
f 243/73/1 244/74/1 228/75/1 227/76/1
f 244/73/1 245/74/1 229/75/1 228/76/1
f 245/73/1 246/74/1 230/75/1 229/76/1
f 246/77/1 247/78/1 231/79/1 230/80/1
f 247/29/1 248/30/1 232/31/1 231/32/1
f 248/29/1 249/30/1 233/31/1 232/32/1
f 249/81/1 250/82/1 234/83/1 233/84/1
f 250/73/1 251/74/1 235/75/1 234/76/1
f 251/73/1 252/74/1 236/75/1 235/76/1
f 252/73/1 253/74/1 237/75/1 236/76/1
f 253/73/1 254/74/1 238/75/1 237/76/1
f 254/73/1 255/74/1 239/75/1 238/76/1
f 255/85/1 256/86/1 240/87/1 239/88/1

g mesh_0002
f 35/89/1 36/90/1 7/91/1 5/92/1
f 37/93/1 38/94/1 11/95/1 9/96/1
f 38/97/1 39/98/1 13/99/1 11/100/1
f 41/101/1 42/102/1 19/103/1 17/104/1
f 42/105/1 43/106/1 21/107/1 19/108/1
f 43/109/1 44/110/1 23/111/1 21/112/1
f 45/89/1 46/90/1 27/91/1 25/92/1
f 51/113/1 52/114/1 36/115/1 35/116/1
f 53/117/1 54/118/1 38/119/1 37/120/1
f 54/121/1 55/122/1 39/123/1 38/124/1
f 57/125/1 58/126/1 42/127/1 41/128/1
f 58/129/1 59/130/1 43/131/1 42/132/1
f 59/133/1 60/134/1 44/135/1 43/136/1
f 61/113/1 62/114/1 46/115/1 45/116/1
f 69/137/1 70/138/1 54/139/1 53/140/1
f 70/141/1 71/142/1 55/143/1 54/144/1
f 74/145/1 75/146/1 59/147/1 58/148/1
f 75/149/1 76/150/1 60/151/1 59/152/1
f 138/153/1 139/154/1 123/155/1 122/156/1
f 139/157/1 140/158/1 124/159/1 123/160/1
f 140/161/1 141/162/1 125/163/1 124/164/1
f 141/165/1 142/166/1 126/167/1 125/168/1
f 154/169/1 155/170/1 139/171/1 138/172/1
f 155/173/1 156/174/1 140/175/1 139/176/1
f 156/177/1 157/178/1 141/179/1 140/180/1
f 157/181/1 158/182/1 142/183/1 141/184/1
f 170/185/1 171/186/1 155/187/1 154/188/1
f 171/189/1 172/190/1 156/191/1 155/192/1
f 172/193/1 173/194/1 157/195/1 156/196/1
f 173/197/1 174/198/1 158/199/1 157/200/1
f 178/201/1 179/202/1 163/203/1 162/204/1
f 179/205/1 180/206/1 164/207/1 163/208/1
f 194/209/1 195/210/1 179/211/1 178/212/1
f 195/213/1 196/214/1 180/215/1 179/216/1
f 210/217/1 211/218/1 195/219/1 194/220/1
f 211/221/1 212/222/1 196/223/1 195/224/1

g mesh_0003
f 39/225/1 40/226/1 15/227/1 13/228/1
f 62/229/1 63/230/1 47/231/1 46/232/1
f 78/233/1 79/234/1 63/235/1 62/236/1
f 155/237/1 156/238/1 140/239/1 139/240/1

g mesh_0004
f 138/153/1 139/154/1 123/155/1 122/156/1
f 141/165/1 142/166/1 126/167/1 125/168/1
f 178/201/1 179/202/1 163/203/1 162/204/1
f 179/205/1 180/206/1 164/207/1 163/208/1

